<svg id="svg" version="1.1" width="1724" height="458" xmlns="http://www.w3.org/2000/svg" xmlns:xlink="http://www.w3.org/1999/xlink" ><g id="svgg"><path id="path0" d="M46.488 20.129 L 40.424 40.023 20.198 40.082 L -0.028 40.142 0.044 40.928 C 0.112 41.676,0.904 42.311,16.125 53.832 C 24.930 60.497,32.172 65.983,32.218 66.024 C 32.264 66.066,29.628 74.715,26.360 85.245 C 22.733 96.931,20.418 104.756,20.418 105.327 C 20.418 107.457,20.456 107.433,37.551 94.432 C 46.108 87.923,53.224 82.599,53.364 82.599 C 53.504 82.599,60.620 87.923,69.178 94.432 C 86.273 107.433,86.311 107.457,86.311 105.327 C 86.311 104.756,83.996 96.931,80.369 85.245 C 77.101 74.715,74.464 66.066,74.510 66.024 C 74.556 65.983,81.798 60.497,90.603 53.832 C 105.824 42.311,106.616 41.676,106.684 40.928 L 106.756 40.142 86.531 40.082 L 66.305 40.023 60.241 20.129 L 54.176 0.234 53.364 0.234 L 52.552 0.234 46.488 20.129 M52.204 32.866 L 52.204 54.131 47.671 47.541 C 45.179 43.917,43.180 40.795,43.230 40.603 C 43.546 39.398,52.082 11.601,52.137 11.601 C 52.174 11.601,52.204 21.170,52.204 32.866 M116.705 17.611 C 114.356 18.360,113.088 19.429,112.136 21.462 L 111.485 22.854 111.485 35.963 L 111.485 49.072 112.087 50.348 C 112.844 51.954,113.914 53.022,115.545 53.800 L 116.821 54.408 124.246 54.408 C 132.599 54.408,132.746 54.382,134.766 52.558 C 136.531 50.963,136.962 49.633,137.078 45.427 C 137.235 39.699,137.402 39.906,132.640 39.911 C 128.032 39.915,128.074 39.880,128.074 43.720 L 128.074 46.172 124.246 46.172 L 120.418 46.172 120.418 35.963 L 120.418 25.754 124.246 25.754 L 128.074 25.754 128.074 28.201 C 128.074 31.762,128.106 31.787,132.687 31.787 C 137.384 31.787,137.236 31.969,137.081 26.381 C 136.947 21.496,136.086 19.726,133.074 18.136 L 131.903 17.517 124.594 17.472 C 120.574 17.447,117.024 17.510,116.705 17.611 M146.520 17.613 C 144.484 18.128,142.843 19.536,141.896 21.578 L 141.304 22.854 141.302 35.963 L 141.300 49.072 141.959 50.466 C 143.665 54.071,144.709 54.408,154.176 54.408 L 161.833 54.408 163.109 53.807 C 164.893 52.967,165.690 52.223,166.483 50.658 L 167.169 49.304 167.233 36.277 C 167.310 20.442,167.228 20.053,163.393 18.170 L 162.065 17.517 154.640 17.477 C 150.557 17.455,146.903 17.516,146.520 17.613 M172.639 17.807 L 172.140 18.213 172.142 35.751 C 172.142 45.396,172.204 53.447,172.279 53.643 C 172.660 54.636,178.956 54.990,180.079 54.081 L 180.626 53.638 180.742 46.516 L 180.858 39.394 182.814 43.725 C 185.089 48.764,184.766 48.492,188.481 48.492 C 192.476 48.492,191.959 48.985,194.805 42.459 L 196.172 39.327 196.288 46.483 L 196.404 53.638 196.951 54.081 C 197.592 54.600,202.982 54.741,204.024 54.267 C 205.108 53.773,205.104 53.833,205.104 35.709 L 205.104 18.540 204.535 17.971 C 203.987 17.422,203.849 17.401,200.834 17.401 C 196.384 17.401,197.197 16.452,192.545 27.087 L 188.537 36.248 188.006 35.120 C 187.714 34.499,186.024 30.650,184.249 26.566 C 182.475 22.483,180.897 18.866,180.742 18.529 C 180.303 17.578,179.597 17.401,176.233 17.401 C 173.629 17.401,173.058 17.466,172.639 17.807 M210.789 17.679 C 210.534 17.823,210.248 18.055,210.154 18.194 C 210.061 18.332,209.982 26.307,209.980 35.915 L 209.977 53.385 210.546 53.955 C 211.097 54.506,211.223 54.524,214.385 54.524 C 217.547 54.524,217.673 54.506,218.224 53.955 L 218.794 53.385 218.796 46.356 L 218.799 39.327 220.381 42.807 C 223.231 49.075,222.593 48.492,226.600 48.492 C 230.315 48.492,229.973 48.785,232.258 43.644 L 234.223 39.222 234.339 46.506 C 234.403 50.512,234.507 53.837,234.571 53.894 C 235.697 54.899,242.051 54.776,242.746 53.736 C 242.840 53.595,242.916 45.597,242.916 35.963 C 242.916 26.328,242.840 18.331,242.746 18.190 C 242.333 17.572,241.443 17.401,238.635 17.401 C 234.525 17.401,234.815 17.162,232.544 22.431 C 230.097 28.106,227.550 33.951,226.952 35.261 L 226.478 36.299 225.984 35.145 C 224.946 32.722,219.881 21.157,219.196 19.647 C 218.801 18.777,218.265 17.916,218.004 17.733 C 217.407 17.315,211.509 17.270,210.789 17.679 M248.254 17.872 C 247.789 18.336,247.784 18.539,247.848 33.939 L 247.912 49.536 248.535 50.717 C 250.311 54.083,251.360 54.408,260.441 54.408 L 267.865 54.408 269.162 53.801 C 270.740 53.060,271.909 51.930,272.647 50.431 L 273.202 49.304 273.268 34.107 C 273.339 17.564,273.362 18.066,272.500 17.673 C 271.184 17.074,265.489 17.320,264.803 18.007 L 264.198 18.612 264.291 32.334 L 264.385 46.056 260.499 46.119 L 256.613 46.183 256.609 32.314 C 256.607 24.686,256.529 18.331,256.435 18.190 C 255.797 17.234,249.150 16.976,248.254 17.872 M278.528 17.971 L 277.958 18.540 277.958 35.963 L 277.958 53.385 278.528 53.955 C 279.079 54.506,279.205 54.524,282.367 54.524 C 285.528 54.524,285.655 54.506,286.205 53.955 L 286.775 53.385 286.775 44.747 L 286.775 36.108 287.661 37.602 C 288.148 38.423,289.125 40.087,289.833 41.299 C 290.929 43.177,294.039 48.475,296.597 52.825 C 297.523 54.399,297.870 54.524,301.302 54.524 C 304.088 54.524,304.979 54.353,305.391 53.736 C 305.861 53.031,305.584 18.345,305.104 17.865 C 304.323 17.084,298.356 17.168,297.553 17.971 L 296.984 18.540 296.976 27.194 L 296.968 35.847 296.269 34.687 C 295.122 32.785,292.616 28.513,289.439 23.044 C 285.960 17.053,286.404 17.401,282.229 17.401 C 279.213 17.401,279.076 17.422,278.528 17.971 M311.485 17.679 C 311.230 17.823,310.944 18.055,310.850 18.194 C 310.757 18.332,310.680 26.328,310.680 35.963 C 310.680 45.597,310.757 53.595,310.850 53.736 C 311.616 54.883,318.546 54.883,319.312 53.736 C 319.782 53.031,319.505 18.345,319.026 17.865 C 318.481 17.321,312.382 17.170,311.485 17.679 M322.149 17.969 C 321.168 18.950,321.338 24.890,322.367 25.576 C 322.507 25.670,324.527 25.749,326.856 25.751 L 331.090 25.754 331.094 39.617 C 331.096 47.242,331.174 53.595,331.268 53.736 C 331.957 54.767,338.352 54.941,339.338 53.955 L 339.907 53.385 339.907 39.570 L 339.907 25.754 344.084 25.754 C 348.974 25.754,349.178 25.673,349.201 23.724 C 349.213 22.667,349.389 22.971,353.480 31.090 L 357.747 39.559 357.764 46.520 C 357.784 55.151,357.438 54.524,362.181 54.524 C 366.924 54.524,366.581 55.145,366.586 46.555 L 366.589 39.629 371.719 29.326 C 378.042 16.626,378.018 17.395,372.089 17.410 C 367.743 17.420,368.258 16.969,364.940 23.674 L 362.131 29.350 359.401 23.796 C 357.899 20.741,356.442 18.056,356.162 17.830 C 355.686 17.444,354.599 17.417,339.187 17.408 L 322.721 17.397 322.149 17.969 M158.413 35.905 L 158.353 46.056 154.292 46.056 L 150.232 46.056 150.172 35.905 L 150.111 25.754 154.292 25.754 L 158.474 25.754 158.413 35.905 M95.824 42.626 C 93.624 43.445,57.416 55.637,57.357 55.578 C 57.313 55.534,59.292 52.564,61.755 48.979 L 66.233 42.459 81.203 42.478 C 89.436 42.488,96.015 42.554,95.824 42.626 M27.519 51.304 C 36.949 54.509,45.645 57.465,46.845 57.871 L 49.026 58.611 41.677 61.202 L 34.328 63.794 23.254 55.405 C 17.164 50.791,11.722 46.670,11.162 46.246 C 10.601 45.822,10.194 45.476,10.258 45.476 C 10.322 45.476,18.090 48.098,27.519 51.304 M116.473 60.078 C 114.393 60.713,113.101 61.858,112.136 63.921 L 111.485 65.313 111.485 78.306 L 111.485 91.299 112.136 92.691 C 112.983 94.503,113.727 95.270,115.429 96.085 L 116.821 96.751 124.246 96.749 L 131.671 96.747 132.947 96.155 C 136.037 94.720,136.938 92.916,137.077 87.886 C 137.236 82.158,137.402 82.365,132.640 82.370 C 128.051 82.375,128.074 82.356,128.074 86.064 L 128.074 88.399 124.246 88.399 L 120.418 88.399 120.418 78.306 L 120.418 68.213 124.246 68.213 L 128.074 68.213 128.074 70.660 C 128.074 74.209,128.121 74.246,132.588 74.246 C 137.274 74.246,137.244 74.283,137.078 68.723 C 136.931 63.798,136.084 62.081,133.098 60.650 L 131.452 59.861 124.252 59.881 C 120.293 59.892,116.792 59.980,116.473 60.078 M145.043 60.689 C 143.242 61.590,142.436 62.516,141.644 64.597 C 140.987 66.321,141.240 91.668,141.926 92.950 C 142.775 94.536,143.644 95.391,145.118 96.088 L 146.520 96.751 154.203 96.752 L 161.887 96.752 163.564 95.912 C 164.890 95.249,165.382 94.852,165.911 94.018 C 167.356 91.739,167.308 92.318,167.236 77.958 L 167.169 64.849 166.552 63.689 C 164.718 60.242,163.920 59.991,154.520 59.908 L 146.743 59.838 145.043 60.689 M172.522 60.225 C 172.322 60.426,172.156 60.687,172.154 60.805 C 172.152 60.924,172.150 68.799,172.150 78.306 C 172.150 87.813,172.152 95.689,172.154 95.807 C 172.169 96.647,178.860 97.305,179.954 96.574 C 180.664 96.100,180.742 95.296,180.745 88.472 L 180.748 81.555 182.330 85.035 C 185.298 91.561,184.650 90.943,188.529 90.948 C 192.326 90.952,191.944 91.281,194.313 85.963 L 196.277 81.555 196.282 88.689 C 196.289 97.550,195.858 96.753,200.638 96.748 C 202.520 96.746,204.175 96.668,204.316 96.574 C 205.078 96.065,205.104 95.443,205.104 78.306 C 205.104 61.169,205.078 60.547,204.316 60.038 C 203.721 59.641,197.237 59.839,196.810 60.268 C 196.586 60.491,194.637 64.719,192.477 69.662 C 190.317 74.606,188.527 78.625,188.499 78.594 C 188.471 78.563,186.663 74.466,184.482 69.490 C 182.301 64.513,180.338 60.310,180.121 60.151 C 179.487 59.685,172.999 59.749,172.522 60.225 M210.441 60.325 C 209.985 60.781,209.977 61.098,209.977 78.306 C 209.977 99.232,209.384 96.752,214.385 96.752 C 219.190 96.752,218.794 97.374,218.794 89.828 L 218.794 83.833 224.635 83.678 C 232.136 83.480,233.406 83.002,235.021 79.768 L 235.731 78.348 235.726 71.715 C 235.719 63.333,235.400 62.396,231.963 60.677 L 230.332 59.861 220.618 59.861 C 211.214 59.861,210.890 59.876,210.441 60.325 M238.979 60.325 C 238.523 60.781,238.515 61.098,238.515 78.306 C 238.515 95.514,238.523 95.832,238.979 96.288 C 239.430 96.738,239.753 96.752,250.232 96.752 C 263.297 96.752,261.951 97.225,261.945 92.633 C 261.940 88.080,262.542 88.399,253.960 88.399 L 247.332 88.399 247.332 85.383 L 247.332 82.367 253.491 82.367 L 259.650 82.367 260.219 81.797 C 260.766 81.250,260.789 81.106,260.789 78.190 C 260.789 75.275,260.766 75.130,260.219 74.583 L 259.650 74.014 253.491 74.014 L 247.332 74.014 247.332 71.114 L 247.332 68.213 254.176 68.213 C 262.677 68.213,261.949 68.604,261.949 64.037 C 261.949 59.377,263.306 59.861,250.232 59.861 C 239.753 59.861,239.430 59.874,238.979 60.325 M263.573 60.325 C 262.689 61.208,262.950 67.403,263.898 68.036 C 264.038 68.130,266.006 68.208,268.271 68.210 L 272.390 68.213 272.390 81.802 C 272.390 98.437,271.877 96.745,276.914 96.745 C 281.951 96.745,281.439 98.437,281.439 81.802 L 281.439 68.213 285.557 68.210 C 290.928 68.205,290.719 68.383,290.719 63.820 C 290.719 59.387,292.371 59.861,276.914 59.861 C 264.346 59.861,264.026 59.872,263.573 60.325 M293.271 60.325 C 292.816 60.781,292.807 61.098,292.807 78.306 C 292.807 95.514,292.816 95.832,293.271 96.288 C 293.752 96.769,300.410 97.013,301.067 96.574 C 301.829 96.065,301.856 95.443,301.856 78.306 C 301.856 61.169,301.829 60.547,301.067 60.038 C 300.410 59.599,293.752 59.844,293.271 60.325 M304.408 60.325 C 303.989 60.745,303.944 61.098,303.944 64.037 C 303.944 68.465,303.637 68.213,309.049 68.213 L 313.225 68.213 313.225 82.019 C 313.225 98.631,312.663 96.752,317.633 96.752 C 322.604 96.752,322.042 98.631,322.042 82.019 L 322.042 68.213 326.174 68.213 C 331.523 68.213,331.167 68.480,331.342 64.346 C 331.473 61.241,331.366 60.439,330.766 60.038 C 330.066 59.571,304.888 59.845,304.408 60.325 M334.107 60.325 C 333.651 60.781,333.643 61.098,333.643 78.306 C 333.643 99.232,333.050 96.752,338.051 96.752 C 343.052 96.752,342.459 99.232,342.459 78.306 C 342.459 57.381,343.052 59.861,338.051 59.861 C 334.880 59.861,334.530 59.902,334.107 60.325 M345.244 60.325 C 344.547 61.022,344.635 61.532,346.501 67.603 C 347.447 70.682,349.178 76.334,350.346 80.162 C 351.515 83.991,352.768 88.063,353.131 89.211 C 353.495 90.360,354.114 92.363,354.508 93.663 C 355.490 96.900,355.250 96.752,359.513 96.752 C 364.077 96.752,363.213 97.883,366.246 87.935 C 368.544 80.397,369.205 78.242,369.842 76.218 C 370.203 75.070,370.986 72.512,371.581 70.534 C 372.176 68.556,373.019 65.817,373.455 64.447 C 374.859 60.029,374.728 59.861,369.882 59.861 C 365.567 59.861,365.863 59.633,364.590 63.935 C 364.026 65.841,363.141 68.811,362.625 70.534 C 362.108 72.256,361.322 74.919,360.878 76.450 C 360.433 77.981,359.930 79.649,359.759 80.157 L 359.448 81.079 358.948 79.345 C 358.674 78.391,358.296 77.117,358.108 76.514 C 357.920 75.911,357.410 74.188,356.974 72.685 C 354.227 63.216,353.399 60.625,352.988 60.214 C 352.385 59.611,345.864 59.704,345.244 60.325 M377.030 60.325 C 376.574 60.781,376.566 61.098,376.566 78.306 C 376.566 95.514,376.574 95.832,377.030 96.288 C 377.481 96.738,377.804 96.752,388.283 96.752 C 401.348 96.752,400.002 97.225,399.996 92.633 C 399.991 88.080,400.593 88.399,392.011 88.399 L 385.383 88.399 385.383 85.383 L 385.383 82.367 391.542 82.367 L 397.701 82.367 398.270 81.797 C 398.817 81.250,398.840 81.106,398.840 78.190 C 398.840 75.275,398.817 75.130,398.270 74.583 L 397.701 74.014 391.542 74.014 L 385.383 74.014 385.383 71.114 L 385.383 68.213 392.227 68.213 C 400.728 68.213,400.000 68.604,400.000 64.037 C 400.000 59.377,401.357 59.861,388.283 59.861 C 377.804 59.861,377.481 59.874,377.030 60.325 M66.380 64.727 C 69.009 65.648,71.266 66.471,71.397 66.554 C 71.598 66.682,80.567 95.165,80.438 95.268 C 80.385 95.311,57.457 61.965,57.348 61.687 C 57.306 61.580,58.246 61.843,59.437 62.271 C 60.627 62.700,63.752 63.805,66.380 64.727 M52.202 71.288 L 52.200 79.466 44.371 85.413 C 40.066 88.683,34.734 92.736,32.522 94.419 L 28.502 97.479 30.086 95.188 C 30.958 93.928,36.265 86.199,41.879 78.013 C 47.494 69.827,52.114 63.124,52.146 63.119 C 52.178 63.114,52.203 66.789,52.202 71.288 M158.469 78.306 L 158.469 88.399 154.292 88.399 L 150.116 88.399 150.116 78.306 L 150.116 68.213 154.292 68.213 L 158.469 68.213 158.469 78.306 M226.862 71.752 L 226.798 75.290 222.796 75.354 L 218.794 75.417 218.794 71.815 L 218.794 68.213 222.860 68.213 L 226.926 68.213 226.862 71.752 " stroke="none" fill="#000000" fill-rule="evenodd"></path></g></svg>